<?xml version="1.0" standalone="no"?>
<!DOCTYPE svg PUBLIC "-//W3C//DTD SVG 1.1//EN" "http://www.w3.org/Graphics/SVG/1.1/DTD/svg11.dtd" >
<svg xmlns="http://www.w3.org/2000/svg" xmlns:xlink="http://www.w3.org/1999/xlink" version="1.1">
<metadata>
Created by FontForge 20170731 at Fri Apr 13 13:28:51 2018
 By Aleksey,,,
Copyright (c) 2018  Unbranded studio. All rights reserved.
</metadata>
<defs>
<font id="FervourSans-UltraLight" horiz-adv-x="150" >
  <font-face 
    font-family="Fervour Sans Ultra Light"
    font-weight="250"
    font-stretch="normal"
    units-per-em="1000"
    panose-1="0 0 5 0 0 0 0 0 0 0"
    ascent="794"
    descent="-206"
    x-height="427"
    cap-height="595"
    bbox="-42 -197 627 686"
    underline-thickness="50"
    underline-position="-200"
    unicode-range="U+0020-007D"
  />
<missing-glyph horiz-adv-x="500" 
 />
    <glyph glyph-name=".notdef" horiz-adv-x="500" 
 />
    <glyph glyph-name=".null" horiz-adv-x="0" 
 />
    <glyph glyph-name="nonmarkingreturn" horiz-adv-x="333" 
 />
    <glyph glyph-name="space" unicode=" " 
 />
    <glyph glyph-name="exclam" unicode="!" horiz-adv-x="157" 
d="M70 191l-5 440q0 14 3 19t11 5t11 -5t3 -19l-5 -440q-1 -10 -9 -10t-9 10zM77 10q-17 0 -17 21v18q0 21 17 21h4q17 0 17 -21v-18q0 -21 -17 -21h-4z" />
    <glyph glyph-name="quotedbl" unicode="&#x22;" horiz-adv-x="236" 
d="M67 614q1 7 7 7h19q1 0 1 -1v-1l-36 -128q-1 -6 -8 -6v2q-1 1 0 4zM170 614q1 7 8 7h18l2 -1l-1 -4l-35 -125q-1 -6 -9 -6q1 0 1 1q-2 0 0 5z" />
    <glyph glyph-name="numbersign" unicode="#" horiz-adv-x="313" 
d="M116 441l-28 -189h109l29 189h-110zM227 456l21 139h13l-21 -139h50l-2 -15h-50l-28 -189h55l-2 -15h-55l-21 -139h-13l21 139h-109l-21 -139h-13l21 139h-50l2 15h50l29 189h-56l2 15h55l21 139h13l-21 -139h109z" />
    <glyph glyph-name="dollar" unicode="$" horiz-adv-x="352" 
d="M286 50.5q-34 -42.5 -92 -46.5v-83h-19v82h-11q-62 0 -120 58l5 20q61 -58 115 -58h11v278q-63 26 -95.5 67t-32.5 92q0 58 35.5 96t92.5 41v81h19v-80q52 -12 97 -47l-5 -18q-26 24 -48 34.5t-44 9.5v-251q68 -31 97 -69t29 -96q0 -68 -34 -110.5zM271.5 241.5
q-24.5 33.5 -77.5 56.5v-274q49 5 75.5 40.5t26.5 94.5q0 49 -24.5 82.5zM175 576q-47 -1 -76 -33t-29 -82q0 -43 27 -77t78 -55v247z" />
    <glyph glyph-name="percent" unicode="%" horiz-adv-x="503" 
d="M119 -7l-8 3l272 611l8 -3zM310.5 70q-23.5 33 -23.5 89q0 57 24 90.5t64 33.5t63 -33.5t23 -89.5t-24 -89.5t-64 -33.5q-39 0 -62.5 33zM446 159q0 52 -19.5 81.5t-53.5 29.5t-52.5 -28.5t-18.5 -81.5q0 -51 19.5 -80.5t53.5 -29.5q71 0 71 109zM70.5 370
q-23.5 33 -23.5 89q0 57 24 90.5t64 33.5t63 -33.5t23 -89.5t-24 -89.5t-64 -33.5q-39 0 -62.5 33zM187.5 378q18.5 28 18.5 81q0 52 -19.5 81.5t-53.5 29.5t-52.5 -28.5t-18.5 -81.5q0 -51 19.5 -80.5t53.5 -29.5t52.5 28z" />
    <glyph glyph-name="ampersand" unicode="&#x26;" horiz-adv-x="489" 
d="M100.5 15.5q-37.5 20.5 -58.5 56.5q-22 34 -22 79q0 51 37 97q14 18 33 35t55 45q-42 89 -42 151q0 55 32 90.5t81 35.5q41 0 65 -27t24 -73q0 -29 -9.5 -50.5t-32.5 -45.5t-68 -60l-30 -24q30 -60 76.5 -119.5t101.5 -107.5q66 80 102 208h16q-38 -128 -107 -218
q71 -56 118 -75l-7 -17q-57 24 -121 79q-40 -41 -78.5 -60.5t-81.5 -19.5q-46 0 -83.5 20.5zM159 337q71 51 100 88t29 78t-19.5 63.5t-54.5 22.5q-43 0 -68 -29t-25 -79q0 -57 38 -144zM332 85q-117 110 -180 231q-60 -45 -86.5 -83.5t-26.5 -79.5q0 -39 19.5 -71.5
t53.5 -51.5q31 -19 73 -19q76 0 147 74z" />
    <glyph glyph-name="quotesingle" unicode="'" horiz-adv-x="142" 
d="M81 540q-6 -29 -8 -88h-5q-2 39 -7 88q-6 30 -6 38q0 23 16 23q15 0 15 -23z" />
    <glyph glyph-name="parenleft" unicode="(" horiz-adv-x="222" 
d="M175 -110q-69 91 -102.5 186.5t-33.5 201.5t33.5 201.5t102.5 186.5l12 -7q-62 -81 -95 -179.5t-33 -201.5t33 -201.5t95 -179.5z" />
    <glyph glyph-name="parenright" unicode=")" horiz-adv-x="222" 
d="M41 -103q62 81 95 179.5t33 201.5t-33 201.5t-95 179.5l12 7q69 -91 102.5 -186.5t33.5 -201.5t-33.5 -201.5t-102.5 -186.5z" />
    <glyph glyph-name="asterisk" unicode="*" horiz-adv-x="308" 
d="M49 410l77 37q6 2 6 7t-6 8l-76 35q-8 5 -8 12q0 4 3.5 8.5t7.5 4.5q6 0 7 -3h1l70 -48q2 -2 5 -2q9 0 7 11l-5 82v1q0 5 3.5 8.5t8.5 3.5t8 -4t2 -9l-5 -82v-3q0 -5 4 -7.5t8 1.5l70 48h1q2 3 7 3q7 0 10 -8q2 0 2 -5q0 -6 -9 -12l-76 -36q-6 -1 -6 -7q0 -5 6 -8l77 -35
q8 -5 8 -12q0 -5 -2 -5q-3 -8 -10 -8q-5 0 -7 3h-1l-70 48q-2 2 -5 2q-9 0 -7 -11l5 -82v-1q0 -5 -3.5 -8.5t-8.5 -3.5t-8 4t-2 9l5 82v3q0 5 -4 7.5t-8 -1.5l-70 -48h-1q-1 -3 -7 -3q-7 0 -10 8q-2 0 -2 5q0 6 8 11z" />
    <glyph glyph-name="plus" unicode="+" horiz-adv-x="322" 
d="M287 295q3 0 5.5 -2.5t2.5 -5.5q0 -6 -8 -6h-118v-128q0 -9 -8 -9t-8 8v129h-119q-7 0 -7 7q0 2 2.5 4.5t4.5 2.5h119v122q0 9 8 9t8 -8v-123h118z" />
    <glyph glyph-name="comma" unicode="," 
d="M33 -87l24 16q16 11 26.5 25.5t10.5 25.5q0 8 -5 16h-17v10h-14q-15 0 -15 6q0 7 11.5 16t22.5 9q13 0 24.5 -12.5t11.5 -27.5q0 -21 -8.5 -37.5t-31.5 -40.5q-14 -18 -26 -19h-3q-9 0 -10 7l-1 4v2zM81 2v1l-6 2v-1l10 -5z" />
    <glyph glyph-name="hyphen" unicode="-" horiz-adv-x="207" 
d="M41 241v19h125v-19h-125z" />
    <glyph glyph-name="period" unicode="." 
d="M90.5 8.5q-6.5 -6.5 -15.5 -6.5t-15.5 6.5t-6.5 15.5t6.5 15.5t15.5 6.5t15.5 -6.5t6.5 -15.5t-6.5 -15.5z" />
    <glyph glyph-name="slash" unicode="/" horiz-adv-x="227" 
d="M217 608l11 -3l-219 -613l-11 3z" />
    <glyph glyph-name="zero" unicode="0" horiz-adv-x="416" 
d="M331.5 74.5q-43.5 -78.5 -123.5 -78.5q-81 0 -124 78t-43 226t43 226t124 78q80 0 123.5 -79t43.5 -225q0 -147 -43.5 -225.5zM208 584q-143 0 -143 -284q0 -140 37 -212t106 -72t106 72t37 212q0 284 -143 284z" />
    <glyph glyph-name="one" unicode="1" horiz-adv-x="185" 
d="M84 5v18h12l6 551l-66 10v6l23 2l33 5q9 2 11 7l16 1l2 -577l1 -23h-38z" />
    <glyph glyph-name="two" unicode="2" horiz-adv-x="339" 
d="M26 21l131 184q60 84 83.5 139t23.5 111q0 59 -31 93.5t-84 34.5q-60 0 -109 -40v19q21 18 52 30t60 12q62 0 99 -40t37 -107q0 -53 -24 -110t-73 -126l-140 -196h247v-20h-272v16z" />
    <glyph glyph-name="three" unicode="3" horiz-adv-x="358" 
d="M140 2.5q-16 4.5 -50 19.5q-26 14 -61 47l11 11q49 -51 98 -63q25 -5 45 -5q66 0 107 39t41 102q0 104 -113 140q-32 9 -80 9v18q46 1 74 9.5t52 30.5q45 38 45 99q0 54 -33.5 87.5t-87.5 33.5q-32 0 -66.5 -17t-62.5 -46l-11 13q70 67 140 67q27 0 49 -8.5t48 -28.5
q43 -34 43 -99q0 -53 -27.5 -86t-96.5 -61l20 -9q56 -12 91.5 -53.5t35.5 -97.5q0 -71 -46 -113.5t-123 -42.5q-26 0 -42 4.5z" />
    <glyph glyph-name="four" unicode="4" horiz-adv-x="397" 
d="M285 602v-416h87v-19h-87v-162h-23v162h-235v15l242 420h16zM262 186v374l-211 -374h211z" />
    <glyph glyph-name="five" unicode="5" horiz-adv-x="352" 
d="M275 46q-42 -51 -114 -51q-33 0 -65 10t-55 29v22q27 -21 55 -30.5t63 -9.5q63 0 98.5 45t35.5 124q0 73 -31.5 114.5t-86.5 41.5q-34 0 -61.5 -15t-44.5 -42l-12 5v306h240v-20h-220v-264q34 49 104 49q63 0 99.5 -47t36.5 -128q0 -88 -42 -139z" />
    <glyph glyph-name="six" unicode="6" horiz-adv-x="386" 
d="M331.5 82.5q-18.5 -41.5 -53.5 -64.5q-34 -22 -75 -22q-158 0 -158 273q0 335 190 335q26 0 51 -7t41 -18v-21q-40 25 -91 25q-83 0 -124.5 -72t-43.5 -221l9 -2q19 34 54.5 54t74.5 20q66 0 105 -49t39 -133q0 -56 -18.5 -97.5zM123 318q-37 -25 -55 -66q3 -123 36 -180
t99 -57q57 0 90 44t33 120t-33 120t-91 44q-42 0 -79 -25z" />
    <glyph glyph-name="seven" unicode="7" horiz-adv-x="332" 
d="M304 582q-26 -54 -67 -163t-70 -210q-37 -126 -49 -204h-28q15 80 49 192t77 224q45 118 64 154h-261v20h285v-13z" />
    <glyph glyph-name="eight" unicode="8" horiz-adv-x="403" 
d="M125 19.5q-40 21.5 -64 57.5q-25 34 -25 79q0 48 34 94.5t87 71.5v11q-40 24 -62.5 59t-22.5 72q0 64 41 99q20 18 45.5 28.5t48.5 10.5q29 0 56 -11.5t46 -31.5q19 -19 29.5 -46.5t10.5 -59.5q0 -39 -22 -78t-64 -73v-9q54 -30 79.5 -65.5t25.5 -80.5q0 -61 -46 -104
q-23 -22 -53 -33.5t-62 -11.5q-42 0 -82 21.5zM330 453q0 60 -36 94q-25 22 -43 30t-44 8q-27 0 -45.5 -7.5t-35.5 -26.5q-34 -34 -34 -87q0 -64 54 -103l24 -17q39 -31 72 -41q88 70 88 150zM259 25q26 10 47 28q42 36 42 94q0 33 -14.5 59.5t-45.5 49.5q-33 24 -57 37
t-57 25q-118 -67 -118 -162q0 -57 47 -101q20 -19 48 -29.5t56 -10.5q26 0 52 10z" />
    <glyph glyph-name="nine" unicode="9" horiz-adv-x="386" 
d="M55 518.5q19 42.5 54 64.5q33 21 74 21q158 0 158 -273q0 -335 -190 -335q-26 0 -51 7t-41 18v21q40 -25 91 -25q83 0 124.5 72t43.5 221q-25 -31 -64 -51.5t-74 -20.5q-66 0 -105 49t-39 133q0 56 19 98.5zM263 282q37 25 55 66q-3 134 -39 186q-36 51 -96 51
q-57 0 -90 -44t-33 -120t33 -120t91 -44q42 0 79 25z" />
    <glyph glyph-name="colon" unicode=":" 
d="M90.5 366.5q-6.5 -6.5 -15.5 -6.5t-15.5 6.5t-6.5 15.5t6.5 15.5t15.5 6.5t15.5 -6.5t6.5 -15.5t-6.5 -15.5zM90.5 8.5q-6.5 -6.5 -15.5 -6.5t-15.5 6.5t-6.5 15.5t6.5 15.5t15.5 6.5t15.5 -6.5t6.5 -15.5t-6.5 -15.5z" />
    <glyph glyph-name="semicolon" unicode=";" 
d="M33 -87l24 16q16 11 26.5 25.5t10.5 25.5q0 8 -5 16h-17v10h-14q-15 0 -15 6q0 7 11.5 16t22.5 9q13 0 24.5 -12.5t11.5 -27.5q0 -21 -8.5 -37.5t-31.5 -40.5q-14 -18 -26 -19h-3q-9 0 -10 7l-1 4v2zM59.5 397.5q6.5 6.5 15.5 6.5t15.5 -6.5t6.5 -15.5t-6.5 -15.5
t-15.5 -6.5t-15.5 6.5t-6.5 15.5t6.5 15.5zM81 2v1l-6 2v-1l10 -5z" />
    <glyph glyph-name="less" unicode="&#x3c;" horiz-adv-x="320" 
d="M264 463l7 -10l-196 -163l196 -163l-7 -10l-214 173z" />
    <glyph glyph-name="equal" unicode="=" horiz-adv-x="320" 
d="M62 359v16h195v-16h-195zM62 205v16h195v-16h-195z" />
    <glyph glyph-name="greater" unicode="&#x3e;" horiz-adv-x="320" 
d="M246 290l-197 163l7 10l214 -173l-214 -173l-7 10z" />
    <glyph glyph-name="question" unicode="?" horiz-adv-x="313" 
d="M29 540q58 61 130 61q56 0 91 -35t35 -91q0 -43 -37 -101l-34 -47q-29 -39 -40 -59t-17 -43q-5 -32 -5 -38l2 -20h-15l-1 23q0 69 57 138q26 32 39 51.5t22 39.5q10 20 10 54q0 54 -28.5 83.5t-80.5 29.5q-34 0 -65 -14.5t-53 -40.5zM130.5 56q7.5 8 19.5 8q11 0 18.5 -8
t7.5 -21q0 -12 -7.5 -20t-18.5 -8t-19 8t-8 20q0 13 7.5 21z" />
    <glyph glyph-name="at" unicode="@" horiz-adv-x="544" 
d="M62.5 352q36.5 80 100.5 127q63 45 137 45q62 0 111 -32t77 -90q29 -63 29 -137q0 -60 -25 -118.5t-67 -95.5q-38 -35 -71 -35q-21 2 -32 21t-10 52q-13 -30 -39 -47.5t-51 -15.5q-32 0 -51.5 30.5t-19.5 81.5q0 38 10 72q6 45 30 82.5t59 59.5q35 20 65 20q17 0 28 -4.5
t27 -17.5l24 -3l-63 -246q-4 -13 -4 -27q0 -21 9.5 -33.5t26.5 -13.5q31 0 64.5 34.5t55.5 87.5t22 115q0 71 -26 127.5t-73 87.5q-46 30 -104 30q-70 0 -129 -43.5t-94 -120.5q-34 -72 -34 -166q0 -83 30 -150t85 -104t119 -37q89 0 172 65l4 -7q-79 -69 -178 -69
q-69 0 -126.5 38.5t-91.5 107.5q-33 69 -33 155q0 94 36.5 174zM187.5 64q17.5 -25 48.5 -25q24 0 49.5 24.5t32.5 54.5l53 213q-13 16 -25 22t-31 6q-44 0 -81.5 -43.5t-54.5 -116.5q-9 -34 -9 -66q0 -44 17.5 -69z" />
    <glyph glyph-name="A" unicode="A" horiz-adv-x="444" 
d="M21 5l191 590h20l191 -590h-25l-57 179h-238l-57 -179h-25zM335 204l-113 358l-113 -358h226z" />
    <glyph glyph-name="B" unicode="B" horiz-adv-x="377" 
d="M306 47.5q-41 -42.5 -113 -42.5h-136v590h117q73 0 110.5 -36.5t37.5 -107.5q0 -48 -23 -83t-60 -44v-10q48 -6 78 -47.5t30 -101.5q0 -75 -41 -117.5zM288 268.5q-35 37.5 -97 37.5h-110v-281h110q62 0 97 37.5t35 102.5q0 66 -35 103.5zM81 326h91q62 0 94 31.5
t32 92.5q0 125 -126 125h-91v-249z" />
    <glyph glyph-name="C" unicode="C" horiz-adv-x="445" 
d="M407 35q-55 -37 -141 -37q-69 0 -121 35.5t-80 101.5q-31 61 -31 165q0 93 29 162.5t84 105.5q49 34 119 34q84 0 141 -39v-22q-32 21 -64 30.5t-72 9.5q-64 0 -111.5 -33.5t-74.5 -95.5q-27 -63 -27 -152q0 -88 26 -151.5t76 -96.5q48 -33 111 -33q42 0 74 9t62 29v-22z
" />
    <glyph glyph-name="D" unicode="D" horiz-adv-x="466" 
d="M188 595q115 0 179 -77.5t64 -217.5t-63.5 -217.5t-179.5 -77.5h-131v590h131zM81 26h105q107 0 164 70.5t57 203.5q0 132 -57.5 203t-163.5 71h-105v-548z" />
    <glyph glyph-name="E" unicode="E" horiz-adv-x="346" 
d="M81 306v-281h223v-20h-247v590h247v-20h-223v-249h183v-20h-183z" />
    <glyph glyph-name="F" unicode="F" horiz-adv-x="316" 
d="M57 5v590h246v-20h-222v-249h182v-20h-182v-301h-24z" />
    <glyph glyph-name="G" unicode="G" horiz-adv-x="492" 
d="M435 48q-31 -24 -75 -37.5t-93 -13.5q-69 0 -121.5 35.5t-80.5 102.5q-31 61 -31 165q0 93 29.5 162.5t84.5 105.5q52 34 120 34q86 0 147 -39v-22q-61 40 -141 40q-101 0 -158.5 -75.5t-57.5 -207.5q0 -130 56.5 -205t155.5 -75q95 0 141 43v191h-95v20h119v-224z" />
    <glyph glyph-name="H" unicode="H" horiz-adv-x="465" 
d="M384 327v268h24v-590h-24v302h-303v-302h-24v590h24v-268h303z" />
    <glyph glyph-name="I" unicode="I" horiz-adv-x="139" 
d="M57 5v590h24v-590h-24z" />
    <glyph glyph-name="J" unicode="J" horiz-adv-x="139" 
d="M80 -96q0 -49 -18 -72.5t-56 -23.5q-13 0 -26 4.5t-22 12.5v15q21 -12 41 -12q31 0 44 18.5t13 62.5v686h24v-691z" />
    <glyph glyph-name="K" unicode="K" horiz-adv-x="398" 
d="M327 595h25l-196 -264l227 -326h-27l-215 308l-60 -77v-231h-24v590h24v-330z" />
    <glyph glyph-name="L" unicode="L" horiz-adv-x="317" 
d="M81 595v-570h223v-20h-247v590h24z" />
    <glyph glyph-name="M" unicode="M" horiz-adv-x="568" 
d="M57 595h26l201 -559l201 559h26v-590h-22v523q-1 1 -5 1q-5 0 -8 -12l-7 -19l-28 -82l-147 -411h-20l-147 411l-25 70l-13 40l-10 -2v-519h-22v590z" />
    <glyph glyph-name="N" unicode="N" horiz-adv-x="453" 
d="M373 595h23v-590h-15l-243 429l-40 71l-19 38l1 -109v-429h-23v590h15l243 -429l59 -109l-1 109v429z" />
    <glyph glyph-name="O" unicode="O" horiz-adv-x="529" 
d="M50 180q-19 63 -19 140q0 128 66 212q30 38 72 58.5t91 20.5q64 0 116.5 -36t82.5 -101q30 -67 30 -154q0 -70 -18.5 -138.5t-47.5 -106.5q-30 -39 -72 -59.5t-91 -20.5q-162 0 -210 185zM346 31.5q39 19.5 66 56.5q25 35 41 100.5t16 131.5q0 62 -14.5 113.5t-42.5 87.5
q-55 73 -152 73q-146 0 -194 -161q-15 -52 -15 -113q0 -65 16.5 -130.5t41.5 -101.5q55 -76 151 -76q47 0 86 19.5z" />
    <glyph glyph-name="P" unicode="P" horiz-adv-x="353" 
d="M296.5 296.5q-42.5 -44.5 -121.5 -44.5h-94v-247h-24v590h118q79 0 121.5 -44.5t42.5 -126.5q0 -83 -42.5 -127.5zM278.5 536q-36.5 39 -103.5 39h-94v-303h94q68 0 104 39.5t36 112.5t-36.5 112z" />
    <glyph glyph-name="Q" unicode="Q" horiz-adv-x="529" 
d="M337.5 43q32.5 18 60.5 56q27 37 41 86.5t14 107.5q0 119 -55 192q-27 36 -59.5 53t-75.5 17q-44 0 -75.5 -16.5t-58.5 -53.5q-55 -73 -55 -192q0 -115 55 -194q26 -38 58.5 -56t75.5 -18q42 0 74.5 18zM327 -67.5q-48 28.5 -78 76.5q-43 2 -76 22t-64 61q-58 79 -58 201
q0 126 63 205q32 40 68 58.5t81 18.5q46 0 82 -18.5t69 -58.5q61 -76 61 -205q0 -126 -58 -202q-30 -40 -64 -60t-75 -22l4 -8l-2 -3q27 -33 67.5 -52.5t82.5 -19.5q28 0 55 6l7 -20q-46 -8 -63 -8q-54 0 -102 28.5z" />
    <glyph glyph-name="R" unicode="R" horiz-adv-x="409" 
d="M62 5v590h93q92 0 139 -38t47 -112q0 -68 -40.5 -107.5t-117.5 -47.5l5 -7l-3 -6l164 -272h-28h2l-162 273h-8v10h-69v-283h-22zM84 305h58q178 0 178 140q0 68 -43 100t-135 32h-58v-272z" />
    <glyph glyph-name="S" unicode="S" horiz-adv-x="352" 
d="M280.5 38.5q-41.5 -42.5 -112.5 -42.5q-87 0 -136 46l6 21q23 -23 56.5 -35t73.5 -12q60 0 95 36.5t35 100.5q0 51 -29 85.5t-100 67.5q-124 57 -124 160q0 62 37.5 100t99.5 38q63 0 109 -34l-5 -19q-50 33 -103 33q-52 0 -83 -31.5t-31 -84.5q0 -92 105 -138
q78 -35 113 -76t35 -98q0 -75 -41.5 -117.5z" />
    <glyph glyph-name="T" unicode="T" horiz-adv-x="385" 
d="M13 575v20h359v-20h-167v-570h-24v570h-168z" />
    <glyph glyph-name="U" unicode="U" horiz-adv-x="484" 
d="M427 227q0 -113 -47.5 -172t-138.5 -59q-89 0 -136.5 59.5t-47.5 171.5v368h24v-368q0 -101 41.5 -155t118.5 -54q79 0 120.5 54t41.5 155v368h24v-368z" />
    <glyph glyph-name="V" unicode="V" horiz-adv-x="444" 
d="M46 595l176 -555l176 555h25l-191 -590h-20l-191 590h25z" />
    <glyph glyph-name="W" unicode="W" horiz-adv-x="647" 
d="M458 5l-108 436q-13 51 -22 92h-10l-22 -92l-107 -436h-17l-152 590h25l110 -439q10 -39 20 -89h10l21 89l109 439h17l108 -439l26 -109l26 109l110 439h25l-152 -590h-17z" />
    <glyph glyph-name="X" unicode="X" horiz-adv-x="404" 
d="M349 595h28l-160 -288l168 -302h-27l-156 286l-156 -286h-27l168 302l-160 288h28l147 -273z" />
    <glyph glyph-name="Y" unicode="Y" horiz-adv-x="412" 
d="M47 595l159 -329l159 329h26l-173 -349v-241h-24v241l-173 349h26z" />
    <glyph glyph-name="Z" unicode="Z" horiz-adv-x="361" 
d="M301 575h-267v20h294v-14l-267 -556h266v-20h-294v14z" />
    <glyph glyph-name="bracketleft" unicode="[" horiz-adv-x="218" 
d="M105 662v-734h75v-11h-92v756h92v-11h-75z" />
    <glyph glyph-name="backslash" unicode="\" horiz-adv-x="227" 
d="M9 608l219 -613l-11 -3l-219 613z" />
    <glyph glyph-name="bracketright" unicode="]" horiz-adv-x="218" 
d="M37 662v11h93v-756h-93v11h76v734h-76z" />
    <glyph glyph-name="asciicircum" unicode="^" horiz-adv-x="334" 
d="M28 385l-9 5l149 196l149 -196l-9 -5l-140 173z" />
    <glyph glyph-name="underscore" unicode="_" horiz-adv-x="236" 
d="M3 -14v9h230v-9h-230z" />
    <glyph glyph-name="grave" unicode="`" horiz-adv-x="239" 
d="M57 596l9 16h1v1l4 -3l90 -93q5 -5 2 -10q-1 0 -4 3h-1l-99 75q-3 3 -3 5zM162 505q2 2 1 2z" />
    <glyph glyph-name="a" unicode="a" horiz-adv-x="345" 
d="M75 157q57 30 175 33h6l-1 124q0 52 -24 80.5t-68 28.5q-41 0 -80 -24l-21 -16l-6 -4l-4 -3l-5 4l-4 8q29 29 58 41.5t65 12.5q53 0 82 -33.5t29 -94.5l1 -312h-8q-7 0 -7 5l-7 51h-6l-3 -1q-20 -20 -32.5 -29.5t-25.5 -15.5q-42 -17 -74 -17q-41 0 -66 24.5t-25 65.5
q0 44 51 72zM67 31q21 -20 57 -20q74 0 132 64v101h-6q-102 -2 -153 -25q-51 -22 -51 -65q0 -35 21 -55zM52 376h1h-1zM278 -8h6v10h-6v-10z" />
    <glyph glyph-name="b" unicode="b" horiz-adv-x="410" 
d="M332.5 55.5q-41.5 -59.5 -112.5 -59.5q-49 0 -85.5 25.5t-55.5 73.5l-10 -93h-12v601l23 4v-248q27 37 63 57t77 20q71 0 112.5 -59.5t41.5 -160.5t-41.5 -160.5zM314.5 363.5q-36.5 54.5 -98.5 54.5q-43 0 -76 -24t-60 -75v-206q27 -51 60 -75t76 -24q62 0 98.5 54.5
t36.5 147.5t-36.5 147.5z" />
    <glyph glyph-name="c" unicode="c" horiz-adv-x="336" 
d="M300 26q-20 -15 -42.5 -21.5t-51.5 -6.5q-78 0 -123.5 58.5t-45.5 159.5t45.5 159.5t123.5 58.5q29 0 51 -6.5t43 -22.5v-18q-40 28 -89 28q-70 0 -110.5 -53.5t-40.5 -145.5t40.5 -145.5t110.5 -53.5q47 0 89 27v-18z" />
    <glyph glyph-name="d" unicode="d" horiz-adv-x="421" 
d="M78 377q41 59 112 59q44 0 82.5 -29t58.5 -78v274l23 4v-554q0 -40 29 -40l12 2v-8q-10 -7 -23 -7q-41 0 -41 50v5q-24 -32 -56.5 -45.5t-84.5 -13.5q-71 0 -112 59t-41 161t41 161zM96 68q36 -54 99 -54q51 0 83 18.5t53 60.5v196q-17 56 -55.5 92.5t-80.5 36.5
q-63 0 -99 -54t-36 -148t36 -148z" />
    <glyph glyph-name="e" unicode="e" horiz-adv-x="362" 
d="M75.5 379q38.5 57 106.5 57q57 0 93.5 -48.5t36.5 -125.5l-2 -33h-251v-32q1 -69 12.5 -106t39.5 -56q29 -21 81 -21q61 0 107 40l8 -11q-50 -47 -124 -47q-76 0 -111 53.5t-35 169.5q0 103 38.5 160zM290 245l1 15q0 71 -29.5 115t-78.5 44q-48 0 -80 -46t-42 -128h229z
" />
    <glyph glyph-name="f" unicode="f" horiz-adv-x="193" 
d="M17 409h57v55q0 61 29.5 96t82.5 35q25 0 39 -7l-2 -14v-2q-9 0 -10 1h-1l-21 2q-95 0 -95 -113v-53h45v-18h-45v-383h-22v382l-52 4q-5 0 -5 5v10z" />
    <glyph glyph-name="g" unicode="g" horiz-adv-x="361" 
d="M34.5 -13q17.5 38 40.5 55l4 4l-4 4q-33 21 -33 62q0 39 41 71l4 4q-25 22 -38.5 51t-13.5 61q0 58 38.5 97.5t94.5 39.5q32 0 51 -10l101 -10v-15l-55 8h-17q53 -44 53 -114q0 -54 -38 -95q-17 -19 -42 -29t-53 -10q-19 0 -38 5.5t-30 14.5q-21 -15 -30.5 -29.5
t-9.5 -33.5q0 -34 19 -49t64 -15h89q57 0 91 -31.5t34 -84.5q0 -23 -13 -47t-35 -42q-50 -41 -132 -41q-73 0 -116.5 29t-43.5 79q0 33 17.5 71zM73.5 -150q38.5 -26 104.5 -26q75 0 116 35q20 14 32 34.5t12 42.5q0 44 -28.5 72t-72.5 28h-92q-27 0 -48 6l-3 -1
q-25 -17 -42 -52.5t-17 -68.5q0 -44 38.5 -70zM87 212.5q33 -35.5 81 -35.5q47 0 81 35.5t34 86.5q0 52 -32 87t-79 35q-52 0 -85 -34t-33 -88q0 -51 33 -86.5z" />
    <glyph glyph-name="h" unicode="h" horiz-adv-x="393" 
d="M315 298q0 61 -23.5 89.5t-74.5 28.5q-56 0 -95 -30t-42 -75v-306h-23v598l23 4v-235l10 -2q15 32 50 49t87 17q55 0 83 -33.5t28 -99.5v-298h-23v293z" />
    <glyph glyph-name="i" unicode="i" horiz-adv-x="137" 
d="M57 5v421l23 4v-425h-23zM82.5 588.5q5.5 -5.5 5.5 -14.5q0 -8 -6 -14t-14 -6q-7 0 -13.5 6.5t-6.5 13.5q0 8 6 14t14 6q9 0 14.5 -5.5z" />
    <glyph glyph-name="j" unicode="j" horiz-adv-x="137" 
d="M-34 -171q10 0 11 -1t9 -1q37 0 56.5 20t19.5 58v552h12v-552q0 -41 -21.5 -64t-60.5 -23q-8 0 -26 5v6zM53 603q6 7 16 7q7 0 15 -8h1q7 -7 7 -18q0 -8 -7.5 -16.5t-15.5 -8.5t-15 7.5t-7 17.5q0 12 6 19z" />
    <glyph glyph-name="k" unicode="k" horiz-adv-x="322" 
d="M287 9h2l-147 222l-67 -100v-122h-20v661h20v-507h6l8 10l173 261h-2h33h-9l-130 -189l157 -236h8h-32z" />
    <glyph glyph-name="l" unicode="l" horiz-adv-x="146" 
d="M121 6q-9 -6 -23 -6q-41 0 -41 50v553l23 4v-554q0 -40 29 -40l12 2v-9z" />
    <glyph glyph-name="m" unicode="m" horiz-adv-x="610" 
d="M531 299q0 60 -21.5 88.5t-67.5 28.5q-30 0 -58 -17.5t-47 -47.5q-19 -28 -20 -60v-286h-23v294q0 60 -21.5 88.5t-67.5 28.5q-50 0 -86 -30.5t-39 -74.5v-306h-23v421l18 4l3 -61q19 30 56 48.5t79 18.5q82 0 109 -93q16 41 52 67t76 26q53 0 78.5 -32.5t25.5 -100.5
v-298h-23v294z" />
    <glyph glyph-name="n" unicode="n" horiz-adv-x="393" 
d="M315 298q0 61 -23.5 89.5t-74.5 28.5q-56 0 -95 -30t-42 -75v-306h-23v421l18 4l3 -61q21 30 61.5 48.5t87.5 18.5q55 0 83 -33.5t28 -99.5v-298h-23v293z" />
    <glyph glyph-name="o" unicode="o" horiz-adv-x="405" 
d="M326 55.5q-46 -59.5 -124 -59.5q-77 0 -123 59.5t-46 160.5q0 66 21.5 116.5t60.5 77.5q38 26 87 26q50 0 88.5 -26.5t59.5 -75.5q22 -43 22 -118q0 -101 -46 -160.5zM309.5 363.5q-39.5 53.5 -107.5 53.5t-107 -54t-39 -147t39 -147t107 -54q69 0 108 53.5t39 147.5
t-39.5 147.5z" />
    <glyph glyph-name="p" unicode="p" horiz-adv-x="410" 
d="M59 -195v629h14l3 -63v-5l8 6q74 63 140 63q76 0 117.5 -53.5t41.5 -151.5q0 -87 -53 -159q-24 -27 -56 -42t-67 -15q-59 0 -125 51l-6 5v-16v-249h-17zM269.5 45q28.5 15 50.5 43q44 56 44 142q0 189 -142 189q-34 0 -68 -17.5t-78 -57.5v-253l2 -3q67 -58 131 -58
q32 0 60.5 15z" />
    <glyph glyph-name="q" unicode="q" horiz-adv-x="410" 
d="M77.5 381.5q41.5 53.5 117.5 53.5q67 0 148 -69l3 68h14v-613h18v-16h-35v264q-70 -55 -131 -55q-35 0 -67 15t-56 42q-25 31 -39 72.5t-14 86.5q0 98 41.5 151.5zM99 88q22 -28 50.5 -43t60.5 -15q63 0 133 60v255q-44 39 -79 56.5t-67 17.5q-70 0 -106 -48t-36 -141
q0 -83 44 -142z" />
    <glyph glyph-name="r" unicode="r" horiz-adv-x="225" 
d="M198 410q-31 1 -60 -14.5t-47 -42.5q-19 -27 -21 -62v-286h-23v421l18 4l3 -79q20 34 57 58.5t73 26.5v-26z" />
    <glyph glyph-name="s" unicode="s" horiz-adv-x="301" 
d="M235 28q-33 -32 -90 -32q-60 0 -110 30l3 20q50 -30 107 -30q47 0 73.5 25.5t26.5 70.5q0 37 -24 60.5t-78 40.5q-100 33 -100 116q0 47 32 76.5t83 29.5q52 0 89 -22l-4 -17q-38 20 -85 20q-43 0 -67.5 -23t-24.5 -63q0 -37 21 -60.5t66 -37.5q59 -19 87 -47.5t28 -69.5
q0 -55 -33 -87z" />
    <glyph glyph-name="t" unicode="t" horiz-adv-x="217" 
d="M28 429l43 4l11 89v1q0 4 2 4h8v-94h79v-17h-79v-331q0 -31 18 -49q7 -7 19 -11t23 -4q17 0 28.5 5t29.5 18l1 1l9 -13q-31 -31 -75 -31q-73 0 -73 82v333h-43q-1 0 -1 4v9z" />
    <glyph glyph-name="u" unicode="u" horiz-adv-x="403" 
d="M85.5 34.5q-30.5 38.5 -30.5 122.5v275h20v-272q0 -76 26 -111t82 -35q34 0 67.5 23t73.5 73l1 322h20v-425h-16l-2 82l-10 -12q-37 -42 -70 -61.5t-66 -19.5q-65 0 -95.5 38.5z" />
    <glyph glyph-name="v" unicode="v" horiz-adv-x="332" 
d="M41 427l125 -392l126 392h22l-140 -422h-17l-138 422h22z" />
    <glyph glyph-name="w" unicode="w" horiz-adv-x="541" 
d="M278 377l111 -336l109 386h21l-123 -422h-16l-110 334l-110 -334h-15l-123 422h21l109 -386l111 336h15z" />
    <glyph glyph-name="x" unicode="x" horiz-adv-x="335" 
d="M280 427h22l-121 -215l128 -207h-25l-117 192l-118 -192h-24l129 205l-122 217h25l111 -202z" />
    <glyph glyph-name="y" unicode="y" horiz-adv-x="332" 
d="M140 -107q-15 -47 -34 -68.5t-45 -21.5q-14 0 -23 4v15l16 -2q24 0 40.5 19t29.5 61l52 172l-156 355h22l146 -325l95 305h21z" />
    <glyph glyph-name="z" unicode="z" horiz-adv-x="288" 
d="M255 414l-206 -391h210v-18h-236v13l207 391h-197v18h222v-13z" />
    <glyph glyph-name="braceleft" unicode="{" horiz-adv-x="223" 
d="M191 -130q-29 0 -46 5t-28 18q-25 28 -25 93q0 77 4 102t4 100q0 37 -17 57l-7 10q-10 16 -39 16v14q15 1 23 4.5t16 12.5l7 9q17 23 17 55q0 74 -4 102q-4 25 -4 102q0 66 25 94q10 12 27 17t47 5h4v-11h-6q-45 0 -63.5 -25t-18.5 -84q0 -47 3 -91q3 -43 3 -97
q0 -46 -10.5 -69t-35.5 -30q24 -15 35 -39.5t11 -61.5q0 -53 -3 -97q-3 -45 -3 -91q0 -59 18.5 -84t63.5 -25h6v-11h-4z" />
    <glyph glyph-name="bar" unicode="|" horiz-adv-x="149" 
d="M68 -90v772h14v-772h-14z" />
    <glyph glyph-name="braceright" unicode="}" horiz-adv-x="223" 
d="M47 -119h6q45 0 63.5 25t18.5 84q0 46 -3 91q-3 44 -3 97q0 38 11 62t35 39q-25 7 -35.5 30t-10.5 69q0 54 3 97q3 44 3 91q0 59 -18.5 84t-63.5 25h-6v11h4q30 0 47 -5t27 -17q25 -28 25 -94q0 -77 -4 -102q-4 -28 -4 -102q0 -35 17 -55q8 -15 18.5 -20.5t27.5 -5.5v-14
q-17 -1 -24.5 -4t-14.5 -12l-7 -10q-17 -23 -17 -57q0 -75 4 -100t4 -102q0 -65 -25 -93q-11 -12 -28.5 -17.5t-45.5 -5.5h-4v11z" />
  </font>
</defs>
</svg>
