<?xml version="1.0" standalone="no"?>
<!DOCTYPE svg PUBLIC "-//W3C//DTD SVG 1.1//EN" "http://www.w3.org/Graphics/SVG/1.1/DTD/svg11.dtd" >
<svg xmlns="http://www.w3.org/2000/svg" xmlns:xlink="http://www.w3.org/1999/xlink" version="1.1">
<metadata>
Created by FontForge 20170731 at Mon Aug 13 15:46:57 2018
 By Aleksey,,,
</metadata>
<defs>
<font id="Borgund-Medium" horiz-adv-x="413" >
  <font-face 
    font-family="Borgund Medium"
    font-weight="500"
    font-stretch="normal"
    units-per-em="1000"
    panose-1="0 0 6 0 0 0 0 0 0 0"
    ascent="800"
    descent="-200"
    x-height="549"
    cap-height="800"
    bbox="-55 -200 851 830"
    underline-thickness="50"
    underline-position="-150"
    unicode-range="U+0020-007D"
  />
<missing-glyph horiz-adv-x="500" 
 />
    <glyph glyph-name=".notdef" horiz-adv-x="500" 
 />
    <glyph glyph-name=".null" horiz-adv-x="0" 
 />
    <glyph glyph-name="nonmarkingreturn" horiz-adv-x="333" 
 />
    <glyph glyph-name="space" unicode=" " horiz-adv-x="200" 
 />
    <glyph glyph-name="exclam" unicode="!" horiz-adv-x="154" 
d="M107 220q-10 -10 -26 -10h-8q-16 0 -26 10t-11 26l-21 554h124l-21 -554q-1 -16 -11 -26zM21 0v71q0 16 11 27t27 11h36q16 0 27 -11t11 -27v-71h-112z" />
    <glyph glyph-name="quotedbl" unicode="&#x22;" horiz-adv-x="318" 
d="M102 537.5q-14 -16.5 -36 -16.5t-36.5 16.5t-14.5 41.5v133h101v-133q0 -25 -14 -41.5zM289 537.5q-14 -16.5 -36 -16.5t-36.5 16.5t-14.5 41.5v133h101v-133q0 -25 -14 -41.5z" />
    <glyph glyph-name="numbersign" unicode="#" horiz-adv-x="585" 
d="M220 302h137l8 124h-136zM129 520l14 196h107l-14 -196h136l14 196h106l-14 -196h60l-7 -94h-59l-9 -124h60l-7 -94h-60l-15 -208h-106l15 208h-137l-14 -208h-107l15 208h-61l7 94h61l9 124h-61l7 94h60z" />
    <glyph glyph-name="dollar" unicode="$" horiz-adv-x="556" 
d="M172.5 576.5q-28.5 -29.5 -28.5 -74.5q0 -42 27 -66q29 -26 81 -33v208q-51 -5 -79.5 -34.5zM403 115q31 28 31 74q0 49 -28 74q-18 16 -35.5 21t-54.5 10v-212q56 5 87 33zM173 93.5q35 -11.5 79 -13.5v222l-26 3q-41 5 -76 20.5t-58 36.5q-53 50 -53 136t54.5 142
t149.5 65v101h82v-100q62 -5 106 -23v-112q-47 36 -115 41v-216l34 -5q49 -7 79.5 -19.5t53.5 -33.5q58 -53 58 -146q0 -88 -59 -142.5t-157 -63.5v-100h-82v97q-78 3 -135 28v118q30 -24 65 -35.5z" />
    <glyph glyph-name="percent" unicode="%" horiz-adv-x="756" 
d="M188 0l298 712h81l-297 -712h-82zM240.5 714q38.5 -20 61 -57.5t22.5 -88.5v-74q0 -76 -48 -120t-121 -44t-121 44t-48 120v74q0 51 22.5 88.5t61 57.5t85.5 20t85.5 -20zM79 565v-67q0 -86 76 -86q38 0 57 22.5t19 63.5v67q0 42 -19 64.5t-57 22.5q-76 0 -76 -87z
M686.5 363q38.5 -20 61 -57.5t22.5 -88.5v-73q0 -51 -22.5 -88.5t-61 -57.5t-85.5 -20t-85.5 20t-61 57.5t-22.5 88.5v73q0 51 22.5 88.5t61 57.5t85.5 20t85.5 -20zM525 214v-67q0 -87 76 -87q38 0 57 22.5t19 64.5v67q0 42 -19 64.5t-57 22.5q-76 0 -76 -87z" />
    <glyph glyph-name="ampersand" unicode="&#x26;" horiz-adv-x="646" 
d="M527 142l129 -142h-131l-63 70q-34 -32 -77.5 -54t-114.5 -22q-110 0 -174 57t-71 155q-2 39 10.5 66.5t33 45t56.5 39.5l30 20q-37 39 -60 79.5t-27 103.5q-3 45 16 81t57 56.5t90 20.5q75 0 125 -45t55 -114q1 -8 1 -22q0 -49 -17 -79.5t-49 -54.5l-50 -36l161 -149
q20 33 25 67l80 -82q-14 -35 -35 -61zM187.5 609.5q-17.5 -19.5 -15.5 -50.5q3 -41 17 -66.5t47 -61.5l32 23q24 17 36 39t9 65q-2 30 -23.5 50.5t-52.5 20.5q-32 0 -49.5 -19.5zM190 295q-35 -23 -50 -40.5t-14 -46.5q4 -53 43 -87t95 -34q38 0 69 12.5t63 42.5l-181 171z
" />
    <glyph glyph-name="quotesingle" unicode="'" horiz-adv-x="131" 
d="M102 537q-14 -16 -36 -16t-36.5 16t-14.5 40v135h101v-135q0 -24 -14 -40z" />
    <glyph glyph-name="parenleft" unicode="(" horiz-adv-x="203" 
d="M15 632q3 65 45.5 106.5t107.5 41.5h17v-100h-18q-50 0 -52 -63v-454q2 -63 52 -63h18v-100h-17q-65 0 -107.5 41.5t-45.5 106.5v484z" />
    <glyph glyph-name="parenright" unicode=")" horiz-adv-x="204" 
d="M139.5 41.5q-42.5 -41.5 -107.5 -41.5h-17v100h18q50 0 52 63v454q-2 63 -52 63h-18v100h17q65 0 107.5 -41.5t45.5 -106.5v-484q-3 -65 -45.5 -106.5z" />
    <glyph glyph-name="asterisk" unicode="*" horiz-adv-x="393" 
d="M36 507l-28 70l123 45l-106 77l46 59l100 -84l15 130l74 -10l-22 -129l119 53l28 -70l-123 -44l106 -78l-46 -59l-100 84l-15 -129l-74 10l22 128z" />
    <glyph glyph-name="plus" unicode="+" horiz-adv-x="461" 
d="M446 410v-95h-168v-168h-95v168h-168v95h168v167h95v-167h168z" />
    <glyph glyph-name="comma" unicode="," horiz-adv-x="146" 
d="M15 -95v155q0 24 16 40t40 16h4q24 0 40 -16t16 -40v-60z" />
    <glyph glyph-name="hyphen" unicode="-" horiz-adv-x="322" 
d="M15 310v95h292v-95h-292z" />
    <glyph glyph-name="period" unicode="." horiz-adv-x="152" 
d="M121 9.5q-16 -9.5 -40 -9.5h-10q-24 0 -40 16t-16 40v10q0 24 16 40t40 16h10q24 0 40 -16t16 -40v-33q0 -14 -16 -23.5z" />
    <glyph glyph-name="slash" unicode="/" horiz-adv-x="373" 
d="M25 -74l225 860h98l-225 -860h-98z" />
    <glyph glyph-name="zero" unicode="0" horiz-adv-x="430" 
d="M372 754q43 -43 43 -110v-494q0 -67 -43 -110t-110 -43h-94q-67 0 -110 43t-43 110v494q0 67 43 110t110 43h94q67 0 110 -43zM129.5 683q-14.5 -14 -14.5 -37v-498q0 -22 14.5 -36.5t36.5 -14.5h98q23 0 37 14.5t14 36.5v498q0 23 -14 37t-37 14h-98q-22 0 -36.5 -14z
" />
    <glyph glyph-name="one" unicode="1" horiz-adv-x="210" 
d="M95 0v700h-80l10 100h114q24 0 40 -16t16 -40v-744h-100z" />
    <glyph glyph-name="two" unicode="2" horiz-adv-x="380" 
d="M322 757q43 -43 43 -110v-123q0 -46 -42 -95l-180 -203q-28 -33 -28 -63v-63h194q24 0 40 -16t16 -40v-44h-350v188q0 46 42 95l180 203q28 33 28 63v100q0 23 -14 37t-37 14h-48q-22 0 -36.5 -14t-14.5 -37v-29h-100v27q0 67 43 110t110 43h44q67 0 110 -43z" />
    <glyph glyph-name="three" unicode="3" horiz-adv-x="457" 
d="M115 151q0 -22 14.5 -36.5t36.5 -14.5h125q23 0 37 14.5t14 36.5v145q0 23 -14 37t-37 14h-99v100h82q23 0 37 14.5t14 36.5v151q0 23 -14 37t-37 14h-91q-22 0 -36.5 -14t-14.5 -37v-26h-100v24q0 67 43 110t110 43h87q67 0 110 -43t43 -110v-147q0 -53 -29 -93
q46 -44 46 -113v-141q0 -67 -43 -110t-110 -43h-121q-67 0 -110 43t-43 110v12h100v-14z" />
    <glyph glyph-name="four" unicode="4" horiz-adv-x="403" 
d="M288 0v170h-273v100l273 530h44q24 0 40 -16t16 -40v-744h-100zM232 270q24 0 40 16t16 40v256l-163 -312h107z" />
    <glyph glyph-name="five" unicode="5" horiz-adv-x="430" 
d="M115 700v-163h147q67 0 110 -43t43 -110v-231q0 -67 -43 -110t-110 -43h-94q-67 0 -110 43t-43 110v58h99v-60q0 -22 14.5 -36.5t36.5 -14.5h99q23 0 37 14.5t14 36.5v235q0 23 -14 37t-37 14h-249v307q0 24 16 40t40 16h314v-100h-270z" />
    <glyph glyph-name="six" unicode="6" horiz-adv-x="430" 
d="M372 757q43 -43 43 -110v-27h-100v29q0 23 -14 37t-37 14h-98q-22 0 -36.5 -14t-14.5 -37v-112h147q67 0 110 -43t43 -110v-231q0 -67 -43 -110t-110 -43h-94q-67 0 -110 43t-43 110v494q0 67 43 110t110 43h94q67 0 110 -43zM129.5 423q-14.5 -14 -14.5 -37v-235
q0 -22 14.5 -36.5t36.5 -14.5h98q23 0 37 14.5t14 36.5v235q0 23 -14 37t-37 14h-98q-22 0 -36.5 -14z" />
    <glyph glyph-name="seven" unicode="7" horiz-adv-x="461" 
d="M334 700h-319v100h375q24 0 40 -16t16 -40v-44l-253 -697h-106z" />
    <glyph glyph-name="eight" unicode="8" horiz-adv-x="457" 
d="M382 757q43 -43 43 -110v-147q0 -53 -29 -93q46 -44 46 -113v-141q0 -67 -43 -110t-110 -43h-121q-67 0 -110 43t-43 110v141q0 69 46 113q-29 40 -29 93v147q0 67 43 110t110 43h87q67 0 110 -43zM146.5 686q-14.5 -14 -14.5 -37v-151q0 -22 14.5 -36.5t36.5 -14.5h91
q23 0 37 14.5t14 36.5v151q0 23 -14 37t-37 14h-91q-22 0 -36.5 -14zM129.5 333q-14.5 -14 -14.5 -37v-145q0 -22 14.5 -36.5t36.5 -14.5h125q23 0 37 14.5t14 36.5v145q0 23 -14 37t-37 14h-125q-22 0 -36.5 -14z" />
    <glyph glyph-name="nine" unicode="9" horiz-adv-x="430" 
d="M372 757q43 -43 43 -110v-494q0 -67 -43 -110t-110 -43h-94q-67 0 -110 43t-43 110v27h100v-29q0 -22 14.5 -36.5t36.5 -14.5h98q23 0 37 14.5t14 36.5v112h-147q-67 0 -110 43t-43 110v231q0 67 43 110t110 43h94q67 0 110 -43zM129.5 686q-14.5 -14 -14.5 -37v-235
q0 -22 14.5 -36.5t36.5 -14.5h98q23 0 37 14.5t14 36.5v235q0 23 -14 37t-37 14h-98q-22 0 -36.5 -14z" />
    <glyph glyph-name="colon" unicode=":" horiz-adv-x="151" 
d="M120 301q-16 -16 -40 -16h-9q-24 0 -40 16t-16 40v66h121v-66q0 -24 -16 -40zM15 0v66q0 24 16 40t40 16h9q24 0 40 -16t16 -40v-66h-121z" />
    <glyph glyph-name="semicolon" unicode=";" horiz-adv-x="151" 
d="M120 301q-16 -16 -40 -16h-9q-24 0 -40 16t-16 40v66h121v-66q0 -24 -16 -40zM17 -95v155q0 24 16 40t40 16h4q24 0 40 -16t16 -40v-60z" />
    <glyph glyph-name="equal" unicode="=" horiz-adv-x="461" 
d="M15 405v95h431v-95h-431zM15 211v95h431v-95h-431z" />
    <glyph glyph-name="greater" unicode="&#x3e;" horiz-adv-x="399" 
d="M384 232l-369 -177v108l245 114l-245 115v108l369 -177v-91z" />
    <glyph glyph-name="question" unicode="?" horiz-adv-x="429" 
d="M314.5 775.5q45.5 -23.5 72.5 -67t27 -100.5q0 -38 -13.5 -83.5t-34.5 -69.5l-77 -89q-8 -9 -13 -25t-5 -29v-44q0 -24 -14.5 -40t-36.5 -16t-36.5 16t-14.5 40v49q0 33 7.5 55.5t26.5 43.5l78 86q14 15 22.5 48.5t8.5 57.5q0 43 -27.5 71.5t-70.5 28.5q-45 0 -71 -29.5
t-26 -71.5h-102q0 55 26 99t71.5 68.5t101.5 24.5q55 0 100.5 -23.5zM163 0v53q0 24 16 40t40 16h1q24 0 40 -16t16 -40v-53h-113z" />
    <glyph glyph-name="at" unicode="@" horiz-adv-x="866" 
d="M395.5 391q-20.5 -10 -33.5 -27q-17 -23 -25 -58.5t-8 -94.5q0 -23 3 -41q6 -35 24 -51t45 -16q20 0 40.5 11t34.5 28q17 21 25 56t8 95q0 23 -3 42q-6 34 -24 50t-44 16q-22 0 -42.5 -10zM458 -188q-129 0 -230 56.5t-157 156t-56 224.5q0 123 60 224t163 159.5
t228 58.5q113 0 200.5 -46t136 -128t48.5 -187q0 -88 -30.5 -162t-78.5 -116.5t-99 -42.5q-34 0 -65 21t-54 65q-24 -37 -67 -57.5t-86 -20.5q-53 0 -88 30.5t-43 85.5q-4 23 -4 58l1 32q3 70 13.5 115.5t39.5 79.5q55 63 137 63q30 0 53.5 -11.5t37.5 -31.5l1 54h91
l-15 -372q30 -36 59 -36q33 0 59.5 40.5t42 98.5t15.5 107q0 85 -38.5 150t-108 100.5t-158.5 35.5q-101 0 -185 -48.5t-133 -133t-49 -185.5q0 -110 45.5 -193t130 -129t197.5 -46h15v-69h-29z" />
    <glyph glyph-name="A" unicode="A" 
d="M349.5 762.5q38.5 -38.5 38.5 -111.5v-650h-100v377h-163v-377h-100v650q0 73 38.5 111.5t111.5 38.5h63q73 0 111.5 -38.5zM138 688.5q-13 -12.5 -13 -37.5v-173h163v173q0 24 -12.5 37t-37.5 13h-63q-24 0 -37 -12.5z" />
    <glyph glyph-name="B" unicode="B" horiz-adv-x="430" 
d="M25 801h230q74 0 112 -38t38 -112v-165q0 -58 -24 -94q24 -36 24 -94v-148q0 -73 -38 -111.5t-112 -38.5h-230v801zM254 102q24 0 37 12.5t13 37.5v138q0 24 -12.5 37t-37.5 13h-130v-238h130zM254 441q25 0 37.5 13t12.5 37v158q0 25 -13 37.5t-37 12.5h-130v-258h130z
" />
    <glyph glyph-name="C" unicode="C" 
d="M349.5 765q38.5 -35 38.5 -102v-75h-100v75q0 37 -50 37h-63q-24 0 -37 -12.5t-13 -37.5v-500q0 -24 13 -37t37 -13h63q24 0 37 13t13 37v75h100v-75q0 -73 -38.5 -111.5t-111.5 -38.5h-63q-73 0 -111.5 38.5t-38.5 111.5v500q0 73 38.5 111.5t111.5 38.5h63
q73 0 111.5 -35z" />
    <glyph glyph-name="D" unicode="D" horiz-adv-x="412" 
d="M25 800h212q76 0 113 -34.5t37 -115.5v-500q0 -84 -36.5 -117t-113.5 -33h-212v800zM237 100q50 0 50 50v500q0 24 -12.5 37t-37.5 13h-112v-600h112z" />
    <glyph glyph-name="E" unicode="E" horiz-adv-x="362" 
d="M125 701v-212h125v-100h-125v-288h212v-100h-312v800h312v-100h-212z" />
    <glyph glyph-name="F" unicode="F" horiz-adv-x="362" 
d="M125 700v-212h125v-100h-125v-288h-1v-100h-99v800h312v-100h-212z" />
    <glyph glyph-name="G" unicode="G" 
d="M25 650q0 73 38.5 111.5t111.5 38.5h63q73 0 111.5 -35t38.5 -102h-100q0 37 -50 37h-63q-24 0 -37 -12.5t-13 -37.5v-500q0 -24 13 -37t37 -13h71q24 0 37 13t13 37v68h-43l1 112h134v-180q0 -73 -38.5 -111.5t-111.5 -38.5h-63q-73 0 -111.5 38.5t-38.5 111.5v500z" />
    <glyph glyph-name="H" unicode="H" 
d="M387 100v-100h-99v388h-163v-388h-99v100h-1l1 600v100h99v-312h163v312h100v-100z" />
    <glyph glyph-name="I" unicode="I" horiz-adv-x="150" 
d="M25 0v800h100v-800h-100z" />
    <glyph glyph-name="J" unicode="J" 
d="M125 150q0 -25 13 -37.5t37 -12.5h63q24 0 37 12.5t13 37.5v550h-223v100h323v-650q0 -73 -38 -111.5t-112 -38.5h-63q-73 0 -111.5 38.5t-38.5 111.5v9h100v-9z" />
    <glyph glyph-name="K" unicode="K" horiz-adv-x="455" 
d="M125 470h7l188 330h108l-217 -382l219 -418l-111 1l-194 374v-376h-100v802h100v-331z" />
    <glyph glyph-name="L" unicode="L" horiz-adv-x="362" 
d="M337 100v-100h-312v800h100v-700h212z" />
    <glyph glyph-name="M" unicode="M" horiz-adv-x="500" 
d="M375 0v538l-80 -150h-90l-80 150v-538h-100v800h80l145 -278l145 278h80v-800h-100z" />
    <glyph glyph-name="N" unicode="N" horiz-adv-x="463" 
d="M376 0l-251 474v-474h-100v800h61l251 -524l1 524h100v-800h-62z" />
    <glyph glyph-name="O" unicode="O" 
d="M349.5 761.5q38.5 -38.5 38.5 -111.5v-500q0 -73 -38.5 -111.5t-111.5 -38.5h-63q-73 0 -111.5 38.5t-38.5 111.5v500q0 73 38.5 111.5t111.5 38.5h63q73 0 111.5 -38.5zM138 687.5q-13 -12.5 -13 -37.5v-500q0 -24 12.5 -37t37.5 -13h63q24 0 37 12.5t13 37.5v500
q0 24 -12.5 37t-37.5 13h-63q-24 0 -37 -12.5z" />
    <glyph glyph-name="P" unicode="P" 
d="M350 762q38 -38 38 -112v-238q0 -73 -38 -111.5t-112 -38.5h-113v-262h-100v800h213q74 0 112 -38zM125 362h113q24 0 37 12.5t13 37.5v238q0 24 -12.5 37t-37.5 13h-113v-338z" />
    <glyph glyph-name="Q" unicode="Q" horiz-adv-x="418" 
d="M25 650q0 73 38.5 111.5t111.5 38.5h63q73 0 111.5 -38.5t38.5 -111.5v-500q0 -25 -5 -50h10v-100h-218q-73 0 -111.5 38.5t-38.5 111.5v500zM137.5 113q12.5 -13 37.5 -13h30l10 38l66 -18q7 11 7 30v500q0 24 -12.5 37t-37.5 13h-63q-24 0 -37 -12.5t-13 -37.5v-500
q0 -24 12.5 -37z" />
    <glyph glyph-name="R" unicode="R" horiz-adv-x="435" 
d="M350 762q38 -38 38 -112v-238q0 -63 -17 -92.5t-40 -36.5t-57 -7l136 -276h-115l-121 262h-49v-262h-100v800h213q74 0 112 -38zM125 362h117q29 0 39.5 12t10.5 38v238q0 24 -12.5 37t-37.5 13h-117v-338z" />
    <glyph glyph-name="S" unicode="S" 
d="M349.5 765q38.5 -35 38.5 -102v-65h-100v65q0 37 -50 37h-63q-24 0 -37 -12.5t-13 -37.5v-112q0 -50 50 -50h63q73 0 111.5 -38.5t38.5 -111.5v-188q0 -73 -38 -111.5t-112 -38.5h-63q-73 0 -111.5 38.5t-38.5 111.5v75h100v-75q0 -24 12.5 -37t37.5 -13h63q24 0 37 12.5
t13 37.5v188q0 50 -50 50h-63q-73 0 -111.5 38.5t-38.5 111.5v112q0 73 38.5 111.5t111.5 38.5h63q73 0 111.5 -35z" />
    <glyph glyph-name="T" unicode="T" horiz-adv-x="400" 
d="M250 700v-700h-100v700h-125v100h350v-100h-125z" />
    <glyph glyph-name="U" unicode="U" 
d="M25 800h100v-650q0 -24 12.5 -37t37.5 -13h63q24 0 37 12.5t13 37.5v650h100v-797l-138 -3h-12h-63q-73 0 -111.5 38.5t-38.5 111.5v650z" />
    <glyph glyph-name="V" unicode="V" horiz-adv-x="530" 
d="M306 0h-80l-24 100l-150 600l-27 100h109l22 -100l110 -442l111 442l22 100h106l-24 -100z" />
    <glyph glyph-name="W" unicode="W" horiz-adv-x="771" 
d="M497 0l-110 448l-111 -448h-100l-151 800h109l91 -491l110 358l-1 4h106l-1 -4l109 -358l92 491h106l-149 -800h-100z" />
    <glyph glyph-name="X" unicode="X" horiz-adv-x="522" 
d="M494 0h-107l-125 257l-123 -257h-114l161 357l-159 443h112l118 -333l131 333h109l-171 -444z" />
    <glyph glyph-name="Y" unicode="Y" 
d="M349.5 38.5q-38.5 -38.5 -111.5 -38.5h-63q-73 0 -111.5 38.5t-38.5 111.5v75h100v-75q0 -24 12.5 -37t37.5 -13h63q24 0 37 12.5t13 37.5v200h-113q-73 0 -111.5 38.5t-38.5 111.5v300h100v-300q0 -24 12.5 -37t37.5 -13h113v350h100v-650q0 -73 -38.5 -111.5z" />
    <glyph glyph-name="Z" unicode="Z" horiz-adv-x="360" 
d="M143 100h188l4 -100h-309l-1 68l168 632h-159l-4 100h279l1 -68z" />
    <glyph glyph-name="bracketleft" unicode="[" horiz-adv-x="347" 
d="M188 736v-678h116v-91h-218v860h218v-91h-116z" />
    <glyph glyph-name="backslash" unicode="\" horiz-adv-x="380" 
d="M282 -24l-282 852h98l282 -852h-98z" />
    <glyph glyph-name="bracketright" unicode="]" horiz-adv-x="347" 
d="M43 -33v90h118v680h-118v90h218v-860h-218z" />
    <glyph glyph-name="underscore" unicode="_" horiz-adv-x="571" 
d="M0 -172v70h571v-70h-571z" />
    <glyph glyph-name="a" unicode="a" horiz-adv-x="400" 
d="M336.5 510.5q38.5 -38.5 38.5 -111.5v-399h-200q-73 0 -111.5 38.5t-38.5 111.5v48q0 73 38.5 111.5t111.5 38.5h100v51q0 50 -50 50h-170v100h170q73 0 111.5 -38.5zM138 235.5q-13 -12.5 -13 -37.5v-48q0 -24 13 -37t37 -13h100v148h-100q-24 0 -37 -12.5z" />
    <glyph glyph-name="b" unicode="b" horiz-adv-x="430" 
d="M40 799h100v-260q26 8 53 8h49q67 0 110 -42t43 -108v-244q0 -67 -43 -110t-110 -43h-202v799zM191 449q-23 -1 -37 -15t-14 -36v-298h103q23 0 37 14.5t14 36.5v248q0 23 -14.5 37.5t-36.5 13.5z" />
    <glyph glyph-name="c" unicode="c" horiz-adv-x="405" 
d="M337 507q43 -43 43 -110v-9h-100v11q0 23 -14 37t-37 14h-53q-22 0 -36.5 -14t-14.5 -37v-248q0 -22 14.5 -36.5t36.5 -14.5h53q23 0 37 14.5t14 36.5v12h100v-10q0 -67 -43 -110t-110 -43h-49q-67 0 -110 43t-43 110v244q0 67 43 110t110 43h49q67 0 110 -43z" />
    <glyph glyph-name="d" unicode="d" horiz-adv-x="405" 
d="M178 0q-67 0 -110 43t-43 110v244q0 66 43 108t110 42h49q27 0 53 -8v260h100v-799h-202zM140.5 436.5q-14.5 -14.5 -14.5 -37.5v-248q0 -22 14.5 -36.5t36.5 -14.5h103v298q0 22 -14 36t-37 15l-52 1q-22 1 -36.5 -13.5z" />
    <glyph glyph-name="e" unicode="e" horiz-adv-x="405" 
d="M337 507q43 -43 43 -110v-154h-255v-92q0 -22 14.5 -36.5t36.5 -14.5h53q23 0 37 14.5t14 36.5v12h100v-10q0 -67 -43 -110t-110 -43h-49q-67 0 -110 43t-43 110v244q0 67 43 110t110 43h49q67 0 110 -43zM139.5 436q-14.5 -14 -14.5 -37v-66h155v66q0 23 -14 37t-37 14
h-53q-22 0 -36.5 -14z" />
    <glyph glyph-name="f" unicode="f" horiz-adv-x="328" 
d="M261 699q-22 0 -36.5 -14t-14.5 -37v-100h85v-100h-85v-448h-100v448h-85v100h85v98q0 67 42.5 110t108.5 43h42v-100h-42z" />
    <glyph glyph-name="g" unicode="g" horiz-adv-x="405" 
d="M337 -157q-43 -43 -110 -43h-49q-67 0 -110 43t-43 110l100 -2q0 -23 14.5 -37t36.5 -14h53q23 0 37 14t14 37v57q-26 -8 -53 -8h-49q-67 0 -110 43t-43 110v244q0 67 43 110t110 43h202v-597q0 -67 -43 -110zM139.5 436q-14.5 -14 -14.5 -37v-248q0 -22 14.5 -36.5
t36.5 -14.5h53q23 0 37 14.5t14 36.5v299h-104q-22 0 -36.5 -14z" />
    <glyph glyph-name="h" unicode="h" horiz-adv-x="405" 
d="M178 550h49q67 0 110 -43t43 -110v-396h-100v398q0 23 -14 37t-37 14h-53q-22 0 -36.5 -14t-14.5 -37v-398h-100v800h100v-259q26 8 53 8z" />
    <glyph glyph-name="i" unicode="i" horiz-adv-x="178" 
d="M134 745q19 -19 19 -45t-19 -44t-45 -18t-45 18t-19 44t19 45t45 19t45 -19zM38 0v550h100v-550h-100z" />
    <glyph glyph-name="j" unicode="j" horiz-adv-x="182" 
d="M137 748q20 -20 20 -48t-20 -47t-48 -19t-48 19t-20 47t20 48t48 20t48 -20zM97 -157q-43 -43 -110 -43h-42v100h42q23 0 38 14.5t15 36.5v599h100v-597q0 -67 -43 -110z" />
    <glyph glyph-name="k" unicode="k" horiz-adv-x="415" 
d="M201 288l199 -288l-111 1l-164 244v-246h-100v801h100v-460h7l153 210h108z" />
    <glyph glyph-name="l" unicode="l" horiz-adv-x="150" 
d="M25 799h100v-799h-100v799z" />
    <glyph glyph-name="m" unicode="m" horiz-adv-x="601" 
d="M533 507q43 -43 43 -110v-396h-100v398q0 23 -14 37t-37 14h-23q-22 0 -36.5 -14t-14.5 -37v-248v-150h-101v398q0 23 -14 37t-37 14h-74v-449h-100v549h172q61 0 104 -37q42 37 103 37h19q67 0 110 -43z" />
    <glyph glyph-name="n" unicode="n" horiz-adv-x="405" 
d="M337 507q43 -43 43 -110v-396h-100v398q0 23 -14 37t-37 14h-104v-449h-100v549h202q67 0 110 -43z" />
    <glyph glyph-name="o" unicode="o" horiz-adv-x="405" 
d="M337 507q43 -43 43 -110v-244q0 -67 -43 -110t-110 -43h-49q-67 0 -110 43t-43 110v244q0 67 43 110t110 43h49q67 0 110 -43zM139.5 436q-14.5 -14 -14.5 -37v-248q0 -22 14.5 -36.5t36.5 -14.5h53q23 0 37 14.5t14 36.5v248q0 23 -14 37t-37 14h-53q-22 0 -36.5 -14z
" />
    <glyph glyph-name="p" unicode="p" horiz-adv-x="405" 
d="M337 507q43 -43 43 -110v-244q0 -67 -43 -110t-110 -43h-49q-27 0 -53 8v-206h-100v748h202q67 0 110 -43zM125 151q0 -22 14.5 -36.5t36.5 -14.5h53q23 0 37 14.5t14 36.5v248q0 23 -14 37t-37 14h-104v-299z" />
    <glyph glyph-name="q" unicode="q" horiz-adv-x="442" 
d="M282 -200v209q-25 -9 -55 -9h-49q-67 0 -110 43t-43 110v244q0 67 43 110t110 43h204v-750h-100zM139.5 436q-14.5 -14 -14.5 -37v-248q0 -22 14.5 -36.5t36.5 -14.5h53q23 0 38 14.5t15 36.5v299h-106q-22 0 -36.5 -14z" />
    <glyph glyph-name="r" unicode="r" horiz-adv-x="275" 
d="M132 450q-7 0 -7 -7v-442h-100v493q0 24 16 40t40 16h169v-100h-118z" />
    <glyph glyph-name="s" unicode="s" horiz-adv-x="381" 
d="M336 416h-100q0 18 -11 27.5t-29 9.5h-11q-24 0 -37 -12.5t-13 -37.5v-20q0 -50 50 -50h21q73 0 111.5 -38.5t38.5 -111.5v-33q0 -73 -38 -111.5t-112 -38.5h-31q-73 0 -111.5 38.5t-38.5 111.5h100q0 -24 12.5 -37t37.5 -13h31q24 0 37 12.5t13 37.5v33q0 50 -50 50h-21
q-73 0 -111.5 38.5t-38.5 111.5v20q0 73 38.5 111.5t111.5 38.5h11q140 0 140 -137z" />
    <glyph glyph-name="t" unicode="t" horiz-adv-x="290" 
d="M265 548v-100h-105v-297q0 -22 10.5 -36.5t27.5 -14.5h42v-100h-42q-60 0 -99 43t-39 110v295h-45v100h45v151h100v-151h105z" />
    <glyph glyph-name="u" unicode="u" horiz-adv-x="407" 
d="M382 449l-1 -349l-1 -100h-202q-65 1 -107.5 42t-45.5 106l2 302v100l100 -1v-99l-2 -287q2 -62 52 -63h104l-1 61l2 288v100h100v-100zM26 62l-1 86z" />
    <glyph glyph-name="v" unicode="v" horiz-adv-x="460" 
d="M407 449l-129 -449h-99l-127 450l-27 99h101l26 -99l77 -275l78 274l26 100l102 -1z" />
    <glyph glyph-name="w" unicode="w" horiz-adv-x="742" 
d="M542 0h-99l-77 342l-79 -342h-99l-163 552h104l106 -375l77 323l114 -1l69 -321l117 374h105z" />
    <glyph glyph-name="x" unicode="x" horiz-adv-x="468" 
d="M232 168l-86 -167h-114l138 263l-145 286h104l101 -197l103 197h110l-161 -290l160 -259h-111z" />
    <glyph glyph-name="y" unicode="y" horiz-adv-x="405" 
d="M337 -157q-43 -43 -110 -43h-49q-67 0 -110 43t-43 110l100 -2q0 -23 14.5 -37t36.5 -14h53q23 0 37 14t14 37v57q-26 -8 -53 -8h-49q-67 0 -110 43t-43 110v397h100v-399q0 -22 14.5 -36.5t36.5 -14.5h53q23 0 37 14.5t14 36.5v399h100v-597q0 -67 -43 -110z" />
    <glyph glyph-name="z" unicode="z" 
d="M148 100h240v-100h-361l1 98l238 352h-241v100h361l-1 -100z" />
    <glyph glyph-name="braceleft" unicode="{" horiz-adv-x="337" 
d="M283 739q-25 0 -38 -3t-20 -11q-18 -18 -15 -64l10 -161q3 -43 -15.5 -64.5t-50.5 -35.5q32 -14 50.5 -35.5t15.5 -64.5l-10 -161q-3 -46 15 -64q7 -8 20 -11t38 -3h39v-91h-71q-73 0 -107 34q-20 20 -29 45t-7 60l10 167q3 39 -18 60q-19 19 -48 19q-16 0 -26.5 13
t-10.5 32t10.5 32t26.5 13q29 0 48 19q21 21 18 60l-10 167q-2 35 7 60t29 45q34 34 107 34h71v-91h-39z" />
    <glyph glyph-name="braceright" unicode="}" horiz-adv-x="337" 
d="M15 830h71q73 0 107 -34q20 -20 29 -45t7 -60l-10 -167q-3 -39 18 -60q19 -19 48 -19q16 0 26.5 -13t10.5 -32t-10.5 -32t-26.5 -13q-29 0 -48 -19q-21 -21 -18 -60l10 -167q2 -35 -7 -60t-29 -45q-34 -34 -107 -34h-71v91h39q25 0 38 3t20 11q18 18 15 64l-10 161
q-3 43 15.5 64.5t50.5 35.5q-32 14 -50.5 35.5t-15.5 64.5l10 161q3 46 -15 64q-7 8 -20 11t-38 3h-39v91z" />
  </font>
</defs>
</svg>
